<svg width="71" height="69" viewBox="0 0 71 69" fill="none" xmlns="http://www.w3.org/2000/svg">
<path d="M59.2867 9.86541C49.1053 -0.0535219 33.1036 -2.83507 20.3648 3.08622C7.47164 8.98098 -0.333018 21.4382 0.0109165 35.5892C0.346032 49.3466 8.52108 61.0609 21.3745 66.173C25.1049 67.6057 28.994 68.3133 32.8655 68.3133C39.4663 68.3133 46.0055 66.257 51.5614 62.2726C59.1808 56.8068 63.8239 48.6965 64.6794 39.5868C64.7235 39.1314 65.0983 38.7776 65.5568 38.7776H69.8252C70.3102 38.7776 70.7026 38.3929 70.707 37.9064C70.7467 34.3289 70.1559 20.4433 59.2823 9.85657L59.2911 9.86541H59.2867ZM33.9281 59.0135C27.9842 58.8543 22.2035 56.1965 18.0542 51.708C13.9535 47.2726 11.8326 41.6034 12.0795 35.6909C12.3088 27.165 17.9484 19.2272 25.8236 16.3837C29.8494 14.9332 37.3454 13.6154 44.6695 18.9574C53.0782 25.0865 52.968 34.7755 52.6946 37.8357C52.6505 38.3531 53.0606 38.7953 53.5765 38.7953H57.0908C57.6552 38.7953 58.0741 39.3171 57.955 39.8699C57.5846 41.6122 57.0379 43.3147 56.3103 44.92C52.4962 53.6405 43.3158 59.4336 33.981 59.0223H33.9237L33.9325 59.0135H33.9281Z" fill="#0053E2"/>
</svg>
